<?xml version="1.0" encoding="utf-8"?>
<!-- Generator: Adobe Illustrator 26.0.3, SVG Export Plug-In . SVG Version: 6.00 Build 0)  -->
<svg version="1.1" id="Layer_1" xmlns="http://www.w3.org/2000/svg" xmlns:xlink="http://www.w3.org/1999/xlink" x="0px" y="0px"
	 viewBox="0 0 606.03 180.28" style="enable-background:new 0 0 606.03 180.28;" xml:space="preserve">
<style type="text/css">
	.st0{fill:#FFFFFF;}
</style>
<g>
	<path class="st0" d="M101.73,45.07v35.8H64.38v-35.8H45.07v90.14h19.31V97.48h37.35v37.73h19.31V45.07H101.73z"/>
	<path class="st0" d="M244.3,118.46V45.07h-19.33v73.65c0,10.69,5.81,16.49,16.49,16.49h43.92v-16.75H244.3z"/>
	<path class="st0" d="M285.37,45.07v16.61h26.64v73.53h19.31V61.68h26.66V45.07H285.37z"/>
	<path class="st0" d="M396,113.18c-1.43,5.54-6.19,8.37-13.39,8.37c-9.01,0-14.81-5.67-16.09-14.81h46.6
		c0.14-1.41,0.27-3.34,0.27-5.79c0-14.81-9.14-31.67-32.06-31.67c-22.03,0-32.06,16.86-32.06,33.35c0,16.34,11.34,33.6,33.35,33.6
		c15.97,0,28.32-9.01,30.9-23.05H396z M381.32,82.41c8.62,0,13.64,5.79,14.16,13.02h-28.72C368.32,86.39,373.21,82.41,381.32,82.41z
		"/>
	<path class="st0" d="M470.7,111c-1.29,5.79-6.56,9.78-13.12,9.78c-9.78,0-15.57-7.47-15.57-18.02c0-10.55,5.65-18.15,15.32-18.15
		c6.56,0,12.09,4.24,13.12,10.03h18.02c-1.16-15.06-14.68-25.36-31.67-25.36c-20.1,0-33.47,14.54-33.47,33.47
		c0,18.92,13.38,33.47,33.47,33.47c16.86,0,30.26-10.82,32.19-25.23H470.7z"/>
	<path class="st0" d="M536.88,69.28c-9.01,0-16.09,3.74-19.83,10.03V45.07h-17.9v90.14h17.9V99.66c0-8.37,5.54-14.41,13.39-14.41
		c7.47,0,12.62,5.67,12.62,13.52v36.44h17.9V94.78C560.96,79.83,551.43,69.28,536.88,69.28z"/>
	<path class="st0" d="M133.17,89.19c0-30.33,19.6-46.01,41.96-46.01c21.04,0,36.46,12.85,38.73,32.26h-18.77
		c-1.2-9.38-9.44-15.68-19.96-15.68c-13.51,0-23.91,10.15-23.91,29.43c0,19.28,10.4,29.31,23.91,29.31
		c10.76,0,19.01-6.3,20.44-15.55h17.93c-1.55,19.28-16.97,32.26-38.37,32.26C152.41,135.2,133.17,119.52,133.17,89.19z"/>
</g>
</svg>
