<svg xmlns="http://www.w3.org/2000/svg" width="1360" height="620" viewBox="0 0 1360 620" role="img" aria-labelledby="title desc">
  <title id="title">Library grounding</title>
  <desc id="desc">Operator backings and remote sources become indexes of knowledge, exemplars and properties that ground every proposal.</desc>
  <defs>
    <style>
      .bg { fill: transparent; }
      .box { fill: #0a100c; stroke: #3d4a42; stroke-width: 2; }
      .boxHot { fill: #0b1608; stroke: #76b900; stroke-width: 2.3; }
      .boxAccent { fill: #160929; stroke: #5f1ebe; stroke-width: 2.3; }
      .inner { fill: #0d130f; stroke: #7d8780; stroke-width: 1.9; }
      .innerHot { fill: #0d1809; stroke: #76b900; stroke-width: 1.9; }
      .innerAccent { fill: #1b0c31; stroke: #5f1ebe; stroke-width: 1.9; }
      .label { fill: #edf3ef; font-family: Aptos, Helvetica, sans-serif; font-size: 20px; font-weight: 680; }
      .small { fill: #c6cec8; font-family: Aptos, Helvetica, sans-serif; font-size: 13px; font-weight: 620; }
      .line { stroke: #e6ece8; stroke-width: 2.2; fill: none; marker-end: url(#arrow); }
      .greenLine { stroke: #76b900; stroke-width: 2.4; fill: none; marker-end: url(#arrowGreen); }
      .accentLine { stroke: #5f1ebe; stroke-width: 2.4; fill: none; marker-end: url(#arrowAccent); }
    </style>
    <marker id="arrow" viewBox="0 0 8 8" refX="7" refY="4" markerWidth="5" markerHeight="5" orient="auto-start-reverse">
      <path d="M 0 1 L 8 4 L 0 7 z" fill="#e6ece8"/>
    </marker>
    <marker id="arrowGreen" viewBox="0 0 8 8" refX="7" refY="4" markerWidth="5" markerHeight="5" orient="auto-start-reverse">
      <path d="M 0 1 L 8 4 L 0 7 z" fill="#76b900"/>
    </marker>
    <marker id="arrowAccent" viewBox="0 0 8 8" refX="7" refY="4" markerWidth="5" markerHeight="5" orient="auto-start-reverse">
      <path d="M 0 1 L 8 4 L 0 7 z" fill="#5f1ebe"/>
    </marker>
  </defs>
  <rect class="box" x="56" y="96" width="250" height="200" rx="8"/>
  <text class="label" x="181.0" y="138" text-anchor="middle">Operator backings</text>
  <rect class="inner" x="78" y="160" width="206" height="32" rx="4"/>
  <text class="small" x="181.0" y="180.0" text-anchor="middle" style="font-size:12px">material folders</text>
  <rect class="inner" x="78" y="204" width="206" height="32" rx="4"/>
  <text class="small" x="181.0" y="224.5" text-anchor="middle" style="font-size:13px">USD assets</text>
  <rect class="innerHot" x="78" y="248" width="206" height="32" rx="4"/>
  <text class="small" x="181.0" y="268.0" text-anchor="middle" style="font-size:12px">Omniverse estate</text>
  <rect class="box" x="56" y="336" width="250" height="180" rx="8"/>
  <text class="label" x="181.0" y="378" text-anchor="middle">Remote sources</text>
  <rect class="inner" x="78" y="400" width="206" height="25" rx="4"/>
  <text class="small" x="181.0" y="417.0" text-anchor="middle" style="font-size:13px">ambientCG</text>
  <rect class="inner" x="78" y="437" width="206" height="25" rx="4"/>
  <text class="small" x="181.0" y="454.0" text-anchor="middle" style="font-size:13px">Poly Haven</text>
  <rect class="innerHot" x="78" y="474" width="206" height="25" rx="4"/>
  <text class="small" x="181.0" y="491.0" text-anchor="middle" style="font-size:13px">vMaterials</text>
  <rect class="boxAccent" x="392" y="210" width="252" height="200" rx="8"/>
  <text class="label" x="518.0" y="252" text-anchor="middle">Indexes</text>
  <rect class="inner" x="414" y="274" width="208" height="32" rx="4"/>
  <text class="small" x="518.0" y="294.5" text-anchor="middle" style="font-size:13px">local scans</text>
  <rect class="innerAccent" x="414" y="318" width="208" height="32" rx="4"/>
  <text class="small" x="518.0" y="338.5" text-anchor="middle" style="font-size:13px">curated seeds</text>
  <rect class="inner" x="414" y="362" width="208" height="32" rx="4"/>
  <text class="small" x="518.0" y="382.5" text-anchor="middle" style="font-size:13px">download cache</text>
  <path class="line" d="M306 196 L350 196 L350 280 L392 280"/>
  <path class="line" d="M306 426 L350 426 L350 340 L392 340"/>
  <rect class="box" x="740" y="60" width="274" height="150" rx="8"/>
  <text class="label" x="877.0" y="102" text-anchor="middle">Knowledge</text>
  <rect class="innerAccent" x="762" y="124" width="230" height="18" rx="4"/>
  <text class="small" x="877.0" y="137.0" text-anchor="middle" style="font-size:12px">USD, PhysX</text>
  <rect class="inner" x="762" y="150" width="230" height="18" rx="4"/>
  <text class="small" x="877.0" y="163.0" text-anchor="middle" style="font-size:12px">PBR and MDL</text>
  <rect class="inner" x="762" y="176" width="230" height="18" rx="4"/>
  <text class="small" x="877.0" y="189.0" text-anchor="middle" style="font-size:12px">validation</text>
  <path class="line" d="M644 310 L696 310 L696 135 L740 135"/>
  <rect class="boxAccent" x="740" y="244" width="274" height="136" rx="8"/>
  <text class="label" x="877.0" y="286" text-anchor="middle">Exemplars</text>
  <rect class="innerAccent" x="762" y="308" width="230" height="24" rx="4"/>
  <text class="small" x="877.0" y="324.5" text-anchor="middle" style="font-size:13px">materials</text>
  <rect class="inner" x="762" y="340" width="230" height="24" rx="4"/>
  <text class="small" x="877.0" y="356.5" text-anchor="middle" style="font-size:13px">asset packs</text>
  <path class="accentLine" d="M644 310 L696 310 L696 312 L740 312"/>
  <rect class="box" x="740" y="414" width="274" height="150" rx="8"/>
  <text class="label" x="877.0" y="456" text-anchor="middle">Properties</text>
  <rect class="innerAccent" x="762" y="478" width="230" height="31" rx="4"/>
  <text class="small" x="877.0" y="497.5" text-anchor="middle" style="font-size:12px">density, friction</text>
  <rect class="inner" x="762" y="517" width="230" height="31" rx="4"/>
  <text class="small" x="877.0" y="537.0" text-anchor="middle" style="font-size:13px">thermal ranges</text>
  <path class="line" d="M644 310 L696 310 L696 489 L740 489"/>
  <rect class="boxAccent" x="1090" y="216" width="240" height="190" rx="8"/>
  <text class="label" x="1210.0" y="258" text-anchor="middle" style="font-size:18px">Grounded proposals</text>
  <rect class="inner" x="1112" y="281" width="196" height="28" rx="4"/>
  <text class="small" x="1210.0" y="299.5" text-anchor="middle" style="font-size:13px">citations</text>
  <rect class="inner" x="1112" y="321" width="196" height="28" rx="4"/>
  <text class="small" x="1210.0" y="339.5" text-anchor="middle" style="font-size:13px">review states</text>
  <rect class="innerAccent" x="1112" y="361" width="196" height="28" rx="4"/>
  <text class="small" x="1210.0" y="379.0" text-anchor="middle" style="font-size:12px">no invented prims</text>
  <path class="line" d="M1014 135 L1056 135 L1056 311 L1090 311"/>
  <path class="accentLine" d="M1014 312 L1056 312 L1056 311 L1090 311"/>
  <path class="line" d="M1014 489 L1056 489 L1056 311 L1090 311"/>
  <path class="line" d="M392 260 L368 260 L368 32 L1210 32 L1210 216"/>
  <text class="small" x="788" y="24" text-anchor="middle">USD Search over the estate joins search results when configured</text>
</svg>
