<svg xmlns="http://www.w3.org/2000/svg" width="1360" height="480" viewBox="0 0 1360 480" role="img" aria-labelledby="title desc">
  <title id="title">Nonvisual materials lane</title>
  <desc id="desc">Evidence-ranked thermal, acoustic and electrical values carry units, bounds and review states into the manifest.</desc>
  <defs>
    <style>
      .bg { fill: transparent; }
      .box { fill: #222229; stroke: #3b3e49; stroke-width: 2; }
      .boxHot { fill: #292931; stroke: #3c91ff; stroke-width: 2.3; }
      .inner { fill: #2f3039; stroke: #526476; stroke-width: 1.9; }
      .innerHot { fill: #292931; stroke: #3c91ff; stroke-width: 1.9; }
      .innerAccent { fill: #2f3039; stroke: #8c69f0; stroke-width: 1.9; }
      .label { fill: #f0f2f8; font-family: Aptos, Helvetica, sans-serif; font-size: 20px; font-weight: 680; }
      .small { fill: #c8d2dd; font-family: Aptos, Helvetica, sans-serif; font-size: 13px; font-weight: 620; }
      .line { stroke: #4bc3af; stroke-width: 2.2; fill: none; marker-end: url(#arrow); }
      .primaryLine { stroke: #3c91ff; stroke-width: 2.4; fill: none; marker-end: url(#arrowPrimary); }
      .accentLine { stroke: #8c69f0; stroke-width: 2.4; fill: none; marker-end: url(#arrowAccent); }
    </style>
    <marker id="arrow" viewBox="0 0 8 8" refX="7" refY="4" markerWidth="5" markerHeight="5" orient="auto-start-reverse">
      <path d="M 0 1 L 8 4 L 0 7 z" fill="#4bc3af"/>
    </marker>
    <marker id="arrowPrimary" viewBox="0 0 8 8" refX="7" refY="4" markerWidth="5" markerHeight="5" orient="auto-start-reverse">
      <path d="M 0 1 L 8 4 L 0 7 z" fill="#3c91ff"/>
    </marker>
    <marker id="arrowAccent" viewBox="0 0 8 8" refX="7" refY="4" markerWidth="5" markerHeight="5" orient="auto-start-reverse">
      <path d="M 0 1 L 8 4 L 0 7 z" fill="#8c69f0"/>
    </marker>
  </defs>
  <rect class="box" x="60" y="150" width="232" height="220" rx="8"/>
  <text class="label" x="176.0" y="192" text-anchor="middle">Evidence rank</text>
  <rect class="innerAccent" x="82" y="221" width="188" height="34" rx="4"/>
  <text class="small" x="176.0" y="242.5" text-anchor="middle" style="font-size:13px">measured</text>
  <rect class="inner" x="82" y="267" width="188" height="34" rx="4"/>
  <text class="small" x="176.0" y="288.5" text-anchor="middle" style="font-size:13px">spec sheet</text>
  <rect class="inner" x="82" y="313" width="188" height="34" rx="4"/>
  <text class="small" x="176.0" y="334.5" text-anchor="middle" style="font-size:13px">material prior</text>
  <path class="line" d="M292 260 L308 260"/>
  <rect class="box" x="312" y="150" width="232" height="220" rx="8"/>
  <text class="label" x="428.0" y="192" text-anchor="middle">Values</text>
  <rect class="inner" x="334" y="221" width="188" height="34" rx="4"/>
  <text class="small" x="428.0" y="242.5" text-anchor="middle" style="font-size:13px">thermal</text>
  <rect class="inner" x="334" y="267" width="188" height="34" rx="4"/>
  <text class="small" x="428.0" y="288.5" text-anchor="middle" style="font-size:13px">acoustic</text>
  <rect class="inner" x="334" y="313" width="188" height="34" rx="4"/>
  <text class="small" x="428.0" y="334.5" text-anchor="middle" style="font-size:13px">electrical</text>
  <path class="accentLine" d="M544 260 L560 260"/>
  <rect class="boxHot" x="564" y="150" width="232" height="220" rx="8"/>
  <text class="label" x="680.0" y="192" text-anchor="middle">Units + bounds</text>
  <rect class="inner" x="586" y="221" width="188" height="34" rx="4"/>
  <text class="small" x="680.0" y="242.5" text-anchor="middle" style="font-size:13px">SI units</text>
  <rect class="inner" x="586" y="267" width="188" height="34" rx="4"/>
  <text class="small" x="680.0" y="288.5" text-anchor="middle" style="font-size:13px">ranges</text>
  <rect class="inner" x="586" y="313" width="188" height="34" rx="4"/>
  <text class="small" x="680.0" y="334.5" text-anchor="middle" style="font-size:13px">uncertainty</text>
  <path class="line" d="M796 260 L812 260"/>
  <rect class="box" x="816" y="150" width="232" height="220" rx="8"/>
  <text class="label" x="932.0" y="192" text-anchor="middle">Review</text>
  <rect class="inner" x="838" y="244" width="188" height="34" rx="4"/>
  <text class="small" x="932.0" y="265.5" text-anchor="middle" style="font-size:13px">task critical</text>
  <rect class="inner" x="838" y="290" width="188" height="34" rx="4"/>
  <text class="small" x="932.0" y="311.0" text-anchor="middle" style="font-size:12px">operator decision</text>
  <path class="line" d="M1048 260 L1064 260"/>
  <rect class="box" x="1068" y="150" width="232" height="220" rx="8"/>
  <text class="label" x="1184.0" y="192" text-anchor="middle">Manifest</text>
  <rect class="inner" x="1090" y="244" width="188" height="34" rx="4"/>
  <text class="small" x="1184.0" y="265.5" text-anchor="middle" style="font-size:13px">citations</text>
  <rect class="inner" x="1090" y="290" width="188" height="34" rx="4"/>
  <text class="small" x="1184.0" y="311.5" text-anchor="middle" style="font-size:13px">review states</text>
</svg>
