<svg xmlns="http://www.w3.org/2000/svg" width="1360" height="620" viewBox="0 0 1360 620" role="img" aria-labelledby="title desc">
  <title id="title">Physics and articulation lane</title>
  <desc id="desc">Validated proposals become bodies, joints, grasp affordances and validation scenarios in the physics and articulation layers.</desc>
  <defs>
    <style>
      .bg { fill: transparent; }
      .box { fill: #222229; stroke: #3b3e49; stroke-width: 2; }
      .boxHot { fill: #292931; stroke: #3c91ff; stroke-width: 2.3; }
      .inner { fill: #2f3039; stroke: #526476; stroke-width: 1.9; }
      .innerHot { fill: #292931; stroke: #3c91ff; stroke-width: 1.9; }
      .innerAccent { fill: #2f3039; stroke: #8c69f0; stroke-width: 1.9; }
      .label { fill: #f0f2f8; font-family: Aptos, Helvetica, sans-serif; font-size: 20px; font-weight: 680; }
      .small { fill: #c8d2dd; font-family: Aptos, Helvetica, sans-serif; font-size: 13px; font-weight: 620; }
      .line { stroke: #4bc3af; stroke-width: 2.2; fill: none; marker-end: url(#arrow); }
      .primaryLine { stroke: #3c91ff; stroke-width: 2.4; fill: none; marker-end: url(#arrowPrimary); }
      .accentLine { stroke: #8c69f0; stroke-width: 2.4; fill: none; marker-end: url(#arrowAccent); }
    </style>
    <marker id="arrow" viewBox="0 0 8 8" refX="7" refY="4" markerWidth="5" markerHeight="5" orient="auto-start-reverse">
      <path d="M 0 1 L 8 4 L 0 7 z" fill="#4bc3af"/>
    </marker>
    <marker id="arrowPrimary" viewBox="0 0 8 8" refX="7" refY="4" markerWidth="5" markerHeight="5" orient="auto-start-reverse">
      <path d="M 0 1 L 8 4 L 0 7 z" fill="#3c91ff"/>
    </marker>
    <marker id="arrowAccent" viewBox="0 0 8 8" refX="7" refY="4" markerWidth="5" markerHeight="5" orient="auto-start-reverse">
      <path d="M 0 1 L 8 4 L 0 7 z" fill="#8c69f0"/>
    </marker>
  </defs>
  <rect class="box" x="46" y="120" width="200" height="230" rx="8"/>
  <text class="label" x="146.0" y="162" text-anchor="middle">Proposals</text>
  <rect class="inner" x="68" y="219" width="156" height="34" rx="4"/>
  <text class="small" x="146.0" y="240.0" text-anchor="middle" style="font-size:12px">validated props</text>
  <rect class="inner" x="68" y="265" width="156" height="34" rx="4"/>
  <text class="small" x="146.0" y="286.0" text-anchor="middle" style="font-size:12px">review approved</text>
  <path class="accentLine" d="M246 235 L258 235"/>
  <rect class="box" x="262" y="120" width="200" height="230" rx="8"/>
  <text class="label" x="362.0" y="162" text-anchor="middle">Bodies</text>
  <rect class="inner" x="284" y="196" width="156" height="34" rx="4"/>
  <text class="small" x="362.0" y="217.5" text-anchor="middle" style="font-size:13px">rigid bodies</text>
  <rect class="inner" x="284" y="242" width="156" height="34" rx="4"/>
  <text class="small" x="362.0" y="263.5" text-anchor="middle" style="font-size:13px">colliders</text>
  <rect class="inner" x="284" y="288" width="156" height="34" rx="4"/>
  <text class="small" x="362.0" y="309.5" text-anchor="middle" style="font-size:13px">mass</text>
  <path class="line" d="M462 235 L474 235"/>
  <rect class="box" x="478" y="120" width="200" height="230" rx="8"/>
  <text class="label" x="578.0" y="162" text-anchor="middle">Joints</text>
  <rect class="inner" x="500" y="196" width="156" height="34" rx="4"/>
  <text class="small" x="578.0" y="217.5" text-anchor="middle" style="font-size:13px">axes</text>
  <rect class="inner" x="500" y="242" width="156" height="34" rx="4"/>
  <text class="small" x="578.0" y="263.5" text-anchor="middle" style="font-size:13px">limits</text>
  <rect class="inner" x="500" y="288" width="156" height="34" rx="4"/>
  <text class="small" x="578.0" y="309.5" text-anchor="middle" style="font-size:13px">drives</text>
  <path class="line" d="M678 235 L690 235"/>
  <rect class="boxHot" x="694" y="120" width="200" height="230" rx="8"/>
  <text class="label" x="794.0" y="162" text-anchor="middle">Grasps</text>
  <rect class="innerAccent" x="716" y="196" width="156" height="34" rx="4"/>
  <text class="small" x="794.0" y="217.0" text-anchor="middle" style="font-size:12px">points + frames</text>
  <rect class="inner" x="716" y="242" width="156" height="34" rx="4"/>
  <text class="small" x="794.0" y="263.0" text-anchor="middle" style="font-size:12px">approach vectors</text>
  <rect class="inner" x="716" y="288" width="156" height="34" rx="4"/>
  <text class="small" x="794.0" y="309.5" text-anchor="middle" style="font-size:13px">gripper width</text>
  <path class="line" d="M894 235 L906 235"/>
  <rect class="box" x="910" y="120" width="200" height="230" rx="8"/>
  <text class="label" x="1010.0" y="162" text-anchor="middle">Scenarios</text>
  <rect class="inner" x="932" y="196" width="156" height="34" rx="4"/>
  <text class="small" x="1010.0" y="217.5" text-anchor="middle" style="font-size:13px">drop tests</text>
  <rect class="inner" x="932" y="242" width="156" height="34" rx="4"/>
  <text class="small" x="1010.0" y="263.5" text-anchor="middle" style="font-size:13px">motion checks</text>
  <rect class="inner" x="932" y="288" width="156" height="34" rx="4"/>
  <text class="small" x="1010.0" y="309.0" text-anchor="middle" style="font-size:12px">solver stability</text>
  <path class="line" d="M1110 235 L1122 235"/>
  <rect class="box" x="1126" y="120" width="200" height="230" rx="8"/>
  <text class="label" x="1226.0" y="162" text-anchor="middle">Layers</text>
  <rect class="inner" x="1148" y="196" width="156" height="34" rx="4"/>
  <text class="small" x="1226.0" y="217.5" text-anchor="middle" style="font-size:13px">phy.usda</text>
  <rect class="inner" x="1148" y="242" width="156" height="34" rx="4"/>
  <text class="small" x="1226.0" y="263.5" text-anchor="middle" style="font-size:13px">art.usda</text>
  <rect class="inner" x="1148" y="288" width="156" height="34" rx="4"/>
  <text class="small" x="1226.0" y="309.5" text-anchor="middle" style="font-size:13px">sem semantics</text>
  <rect class="boxHot" x="420" y="420" width="520" height="130" rx="8"/>
  <text class="label" x="680.0" y="462" text-anchor="middle">PhysX consumes the opinions</text>
  <rect class="inner" x="442" y="492" width="476" height="34" rx="4"/>
  <text class="small" x="680.0" y="512.5" text-anchor="middle" style="font-size:11px">UsdPhysics schemas only</text>
  <path class="line" d="M1226 350 L1226 485 L940 485"/>
</svg>
