<svg xmlns="http://www.w3.org/2000/svg" width="1360" height="620" viewBox="0 0 1360 620" role="img" aria-labelledby="title desc">
  <title id="title">RL environment loop</title>
  <desc id="desc">Validated assets become task contracts, rewards and training runs whose policy evidence loops back into asset work.</desc>
  <defs>
    <style>
      .bg { fill: transparent; }
      .box { fill: #222229; stroke: #3b3e49; stroke-width: 2; }
      .boxHot { fill: #292931; stroke: #3c91ff; stroke-width: 2.3; }
      .inner { fill: #2f3039; stroke: #526476; stroke-width: 1.9; }
      .innerHot { fill: #292931; stroke: #3c91ff; stroke-width: 1.9; }
      .innerAccent { fill: #2f3039; stroke: #8c69f0; stroke-width: 1.9; }
      .label { fill: #f0f2f8; font-family: Aptos, Helvetica, sans-serif; font-size: 20px; font-weight: 680; }
      .small { fill: #c8d2dd; font-family: Aptos, Helvetica, sans-serif; font-size: 13px; font-weight: 620; }
      .line { stroke: #4bc3af; stroke-width: 2.2; fill: none; marker-end: url(#arrow); }
      .primaryLine { stroke: #3c91ff; stroke-width: 2.4; fill: none; marker-end: url(#arrowPrimary); }
      .accentLine { stroke: #8c69f0; stroke-width: 2.4; fill: none; marker-end: url(#arrowAccent); }
    </style>
    <marker id="arrow" viewBox="0 0 8 8" refX="7" refY="4" markerWidth="5" markerHeight="5" orient="auto-start-reverse">
      <path d="M 0 1 L 8 4 L 0 7 z" fill="#4bc3af"/>
    </marker>
    <marker id="arrowPrimary" viewBox="0 0 8 8" refX="7" refY="4" markerWidth="5" markerHeight="5" orient="auto-start-reverse">
      <path d="M 0 1 L 8 4 L 0 7 z" fill="#3c91ff"/>
    </marker>
    <marker id="arrowAccent" viewBox="0 0 8 8" refX="7" refY="4" markerWidth="5" markerHeight="5" orient="auto-start-reverse">
      <path d="M 0 1 L 8 4 L 0 7 z" fill="#8c69f0"/>
    </marker>
  </defs>
  <rect class="box" x="60" y="120" width="232" height="230" rx="8"/>
  <text class="label" x="176.0" y="162" text-anchor="middle">SimReady asset</text>
  <rect class="inner" x="82" y="219" width="188" height="34" rx="4"/>
  <text class="small" x="176.0" y="240.0" text-anchor="middle" style="font-size:12px">validated package</text>
  <rect class="inner" x="82" y="265" width="188" height="34" rx="4"/>
  <text class="small" x="176.0" y="286.0" text-anchor="middle" style="font-size:12px">grasp affordances</text>
  <path class="line" d="M292 235 L308 235"/>
  <rect class="box" x="312" y="120" width="232" height="230" rx="8"/>
  <text class="label" x="428.0" y="162" text-anchor="middle">Task contract</text>
  <rect class="inner" x="334" y="196" width="188" height="34" rx="4"/>
  <text class="small" x="428.0" y="217.5" text-anchor="middle" style="font-size:13px">observations</text>
  <rect class="inner" x="334" y="242" width="188" height="34" rx="4"/>
  <text class="small" x="428.0" y="263.5" text-anchor="middle" style="font-size:13px">actions</text>
  <rect class="inner" x="334" y="288" width="188" height="34" rx="4"/>
  <text class="small" x="428.0" y="309.5" text-anchor="middle" style="font-size:13px">resets</text>
  <path class="line" d="M544 235 L560 235"/>
  <rect class="box" x="564" y="120" width="232" height="230" rx="8"/>
  <text class="label" x="680.0" y="162" text-anchor="middle">Reward + curriculum</text>
  <rect class="inner" x="586" y="219" width="188" height="34" rx="4"/>
  <text class="small" x="680.0" y="240.5" text-anchor="middle" style="font-size:13px">reward terms</text>
  <rect class="inner" x="586" y="265" width="188" height="34" rx="4"/>
  <text class="small" x="680.0" y="286.5" text-anchor="middle" style="font-size:13px">randomisation</text>
  <path class="line" d="M796 235 L812 235"/>
  <rect class="box" x="816" y="120" width="232" height="230" rx="8"/>
  <text class="label" x="932.0" y="162" text-anchor="middle">Training</text>
  <rect class="inner" x="838" y="219" width="188" height="34" rx="4"/>
  <text class="small" x="932.0" y="240.5" text-anchor="middle" style="font-size:13px">Isaac Lab</text>
  <rect class="inner" x="838" y="265" width="188" height="34" rx="4"/>
  <text class="small" x="932.0" y="286.5" text-anchor="middle" style="font-size:13px">smoke rollout</text>
  <path class="line" d="M1048 235 L1064 235"/>
  <rect class="boxHot" x="1068" y="120" width="232" height="230" rx="8"/>
  <text class="label" x="1184.0" y="162" text-anchor="middle">Policy evidence</text>
  <rect class="innerAccent" x="1090" y="219" width="188" height="34" rx="4"/>
  <text class="small" x="1184.0" y="240.5" text-anchor="middle" style="font-size:13px">metrics</text>
  <rect class="inner" x="1090" y="265" width="188" height="34" rx="4"/>
  <text class="small" x="1184.0" y="286.0" text-anchor="middle" style="font-size:12px">evaluation runs</text>
  <path class="accentLine" d="M1184 350 L1184 470 L176 470 L176 350"/>
  <text class="small" x="680" y="492" text-anchor="middle">better assets feed better policies; policy gaps feed the next asset run</text>
</svg>
