<svg xmlns="http://www.w3.org/2000/svg" width="1360" height="620" viewBox="0 0 1360 620" role="img" aria-labelledby="title desc">
  <title id="title">Segmentation lane</title>
  <desc id="desc">Inputs pass through segmentation priors into stable segments, semantic conditioning and the segmentation manifest.</desc>
  <defs>
    <style>
      .bg { fill: transparent; }
      .box { fill: #222229; stroke: #3b3e49; stroke-width: 2; }
      .boxHot { fill: #292931; stroke: #3c91ff; stroke-width: 2.3; }
      .inner { fill: #2f3039; stroke: #526476; stroke-width: 1.9; }
      .innerHot { fill: #292931; stroke: #3c91ff; stroke-width: 1.9; }
      .innerAccent { fill: #2f3039; stroke: #8c69f0; stroke-width: 1.9; }
      .label { fill: #f0f2f8; font-family: Aptos, Helvetica, sans-serif; font-size: 20px; font-weight: 680; }
      .small { fill: #c8d2dd; font-family: Aptos, Helvetica, sans-serif; font-size: 13px; font-weight: 620; }
      .line { stroke: #4bc3af; stroke-width: 2.2; fill: none; marker-end: url(#arrow); }
      .primaryLine { stroke: #3c91ff; stroke-width: 2.4; fill: none; marker-end: url(#arrowPrimary); }
      .accentLine { stroke: #8c69f0; stroke-width: 2.4; fill: none; marker-end: url(#arrowAccent); }
    </style>
    <marker id="arrow" viewBox="0 0 8 8" refX="7" refY="4" markerWidth="5" markerHeight="5" orient="auto-start-reverse">
      <path d="M 0 1 L 8 4 L 0 7 z" fill="#4bc3af"/>
    </marker>
    <marker id="arrowPrimary" viewBox="0 0 8 8" refX="7" refY="4" markerWidth="5" markerHeight="5" orient="auto-start-reverse">
      <path d="M 0 1 L 8 4 L 0 7 z" fill="#3c91ff"/>
    </marker>
    <marker id="arrowAccent" viewBox="0 0 8 8" refX="7" refY="4" markerWidth="5" markerHeight="5" orient="auto-start-reverse">
      <path d="M 0 1 L 8 4 L 0 7 z" fill="#8c69f0"/>
    </marker>
  </defs>
  <rect class="box" x="60" y="120" width="232" height="230" rx="8"/>
  <text class="label" x="176.0" y="162" text-anchor="middle">Inputs</text>
  <rect class="inner" x="82" y="219" width="188" height="34" rx="4"/>
  <text class="small" x="176.0" y="240.5" text-anchor="middle" style="font-size:13px">source photos</text>
  <rect class="inner" x="82" y="265" width="188" height="34" rx="4"/>
  <text class="small" x="176.0" y="286.0" text-anchor="middle" style="font-size:12px">reconstructed mesh</text>
  <path class="line" d="M292 235 L308 235"/>
  <rect class="boxHot" x="312" y="120" width="232" height="230" rx="8"/>
  <text class="label" x="428.0" y="162" text-anchor="middle">Prior</text>
  <rect class="innerAccent" x="334" y="196" width="188" height="34" rx="4"/>
  <text class="small" x="428.0" y="217.5" text-anchor="middle" style="font-size:13px">SAM masks</text>
  <rect class="inner" x="334" y="242" width="188" height="34" rx="4"/>
  <text class="small" x="428.0" y="263.5" text-anchor="middle" style="font-size:13px">appearance CV</text>
  <rect class="inner" x="334" y="288" width="188" height="34" rx="4"/>
  <text class="small" x="428.0" y="309.5" text-anchor="middle" style="font-size:13px">part hints</text>
  <path class="accentLine" d="M544 235 L560 235"/>
  <rect class="box" x="564" y="120" width="232" height="230" rx="8"/>
  <text class="label" x="680.0" y="162" text-anchor="middle">Segments</text>
  <rect class="innerAccent" x="586" y="196" width="188" height="34" rx="4"/>
  <text class="small" x="680.0" y="217.5" text-anchor="middle" style="font-size:13px">stable ids</text>
  <rect class="inner" x="586" y="242" width="188" height="34" rx="4"/>
  <text class="small" x="680.0" y="263.5" text-anchor="middle" style="font-size:13px">labels</text>
  <rect class="inner" x="586" y="288" width="188" height="34" rx="4"/>
  <text class="small" x="680.0" y="309.0" text-anchor="middle" style="font-size:12px">material regions</text>
  <path class="line" d="M796 235 L812 235"/>
  <rect class="box" x="816" y="120" width="232" height="230" rx="8"/>
  <text class="label" x="932.0" y="162" text-anchor="middle">Conditioning</text>
  <rect class="inner" x="838" y="196" width="188" height="34" rx="4"/>
  <text class="small" x="932.0" y="217.5" text-anchor="middle" style="font-size:13px">heal</text>
  <rect class="inner" x="838" y="242" width="188" height="34" rx="4"/>
  <text class="small" x="932.0" y="263.0" text-anchor="middle" style="font-size:12px">smooth by selector</text>
  <rect class="inner" x="838" y="288" width="188" height="34" rx="4"/>
  <text class="small" x="932.0" y="309.0" text-anchor="middle" style="font-size:12px">prune fragments</text>
  <path class="line" d="M1048 235 L1064 235"/>
  <rect class="box" x="1068" y="120" width="232" height="230" rx="8"/>
  <text class="label" x="1184.0" y="162" text-anchor="middle">Manifest</text>
  <rect class="inner" x="1090" y="196" width="188" height="34" rx="4"/>
  <text class="small" x="1184.0" y="217.5" text-anchor="middle" style="font-size:13px">segment masks</text>
  <rect class="inner" x="1090" y="242" width="188" height="34" rx="4"/>
  <text class="small" x="1184.0" y="263.5" text-anchor="middle" style="font-size:13px">semantics</text>
  <rect class="inner" x="1090" y="288" width="188" height="34" rx="4"/>
  <text class="small" x="1184.0" y="309.5" text-anchor="middle" style="font-size:13px">consumers</text>
  <rect class="box" x="420" y="420" width="520" height="150" rx="8"/>
  <text class="label" x="680.0" y="462" text-anchor="middle">Downstream consumers</text>
  <rect class="inner" x="442" y="484" width="476" height="18" rx="4"/>
  <text class="small" x="680.0" y="497.0" text-anchor="middle" style="font-size:12px">materials</text>
  <rect class="inner" x="442" y="510" width="476" height="18" rx="4"/>
  <text class="small" x="680.0" y="523.0" text-anchor="middle" style="font-size:12px">texturing</text>
  <rect class="inner" x="442" y="536" width="476" height="18" rx="4"/>
  <text class="small" x="680.0" y="549.0" text-anchor="middle" style="font-size:12px">verification</text>
  <path class="accentLine" d="M680 350 L680 388 L680 388 L680 420"/>
</svg>
